<svg xmlns="http://www.w3.org/2000/svg" viewBox="0 0 512 512" role="img" aria-label="¤`hh">
  <defs>
    <linearGradient id="g" x1="0" x2="1" y1="0" y2="1">
      <stop offset="0" stop-color="#F472B6"/>
      <stop offset="1" stop-color="#C4B5FD"/>
    </linearGradient>
  </defs>
  <rect x="48" y="48" width="416" height="416" rx="96" fill="#FFF7ED"/>
  <rect x="72" y="72" width="368" height="368" rx="84" fill="url(#g)" opacity="0.18"/>
  <path d="M256 146c52 0 94 42 94 94 0 83-94 154-94 154s-94-71-94-154c0-52 42-94 94-94z" fill="url(#g)"/>
  <path d="M256 182c32 0 58 26 58 58 0 29-23 56-38 73-8 9-15 16-20 20-5-4-12-11-20-20-15-17-38-44-38-73 0-32 26-58 58-58z" fill="#FFF7ED" opacity="0.9"/>
</svg>

